<svg xmlns="http://www.w3.org/2000/svg" viewBox="0 0 361.16 92.25"><title>Apes</title><path d="M159.75,76H129.08l-11.5,15h-21L148.4,19H167l10.87,72H161.73ZM137.49,62h19.65L154,37.47Z" fill="#231f20"/><path d="M222.72,19c13.1,0,22.34,8.33,22.34,20.61,0,15.74-11.47,25.29-28.43,25.39h-11.1L200,91H184.11l15.24-72ZM212.41,33l-3.88,18h8.06c8.65,0,11.83-5.07,11.83-9.94S225.74,33,218.78,33Z" fill="#231f20"/><path d="M243.74,91,259,19h45.08l-3.22,15H271.62l-3,14H295.2l-2.92,14H265.77l-3,14h29.38L289,91Z" fill="#231f20"/><path d="M338.14,71c0-2.81-1.11-5.12-5.13-6.83l-8.35-3.42c-9.65-3.92-14.07-11.06-14.07-19.61,0-14.08,12.16-23.13,25.94-23.13,19.61,0,24.63,13.48,24.63,20.82l-14.78,2.41c0-2-.9-9.45-10.56-9.45-5.83,0-9.25,4-9.25,7.94,0,3.62,2.22,5.53,5,6.74l7.54,3.22c11.06,4.72,15.49,11.36,15.49,20.11,0,11.16-9.35,22.42-25.84,22.42-20.22,0-27.25-13.57-27.25-22.82a15.76,15.76,0,0,1,.2-2.72l14.58-2.51a13.17,13.17,0,0,0-.2,2.31c0,5.93,3.61,11.76,12.36,12C334.62,78.48,338.14,75.56,338.14,71Z" fill="#231f20"/><path d="M0,0H92V92H0Z" fill="none"/><path d="M39,36V23H52V9H82.37l7.95,9h46.94l-53,73H25V36ZM69.87,76.77A22.26,22.26,0,1,0,47.61,54.51,22.26,22.26,0,0,0,69.87,76.77ZM56.51,54.51A13.36,13.36,0,1,0,69.87,41.15,13.35,13.35,0,0,0,56.51,54.51Z" fill="#e64c3c"/></svg>